<?xml version="1.0" encoding="UTF-8" standalone="no"?>
<!-- Created with Inkscape (http://www.inkscape.org/) -->

<svg
   xmlns:dc="http://purl.org/dc/elements/1.1/"
   xmlns:cc="http://creativecommons.org/ns#"
   xmlns:rdf="http://www.w3.org/1999/02/22-rdf-syntax-ns#"
   xmlns:svg="http://www.w3.org/2000/svg"
   xmlns="http://www.w3.org/2000/svg"
   xmlns:sodipodi="http://sodipodi.sourceforge.net/DTD/sodipodi-0.dtd"
   xmlns:inkscape="http://www.inkscape.org/namespaces/inkscape"
   width="70"
   height="70"
   viewBox="0 0 18.520833 18.520834"
   version="1.1"
   id="svg7970"
   inkscape:version="0.92.1 r15371"
   sodipodi:docname="i.svg">
  <defs
     id="defs7964" />
  <sodipodi:namedview
     id="base"
     pagecolor="#ffffff"
     bordercolor="#666666"
     borderopacity="1.0"
     inkscape:pageopacity="0.0"
     inkscape:pageshadow="2"
     inkscape:zoom="3.959798"
     inkscape:cx="35.508886"
     inkscape:cy="19.108208"
     inkscape:document-units="mm"
     inkscape:current-layer="layer1"
     showgrid="false"
     inkscape:pagecheckerboard="true"
     units="px"
     inkscape:window-width="1024"
     inkscape:window-height="705"
     inkscape:window-x="-8"
     inkscape:window-y="-8"
     inkscape:window-maximized="1" />
  <metadata
     id="metadata7967">
    <rdf:RDF>
      <cc:Work
         rdf:about="">
        <dc:format>image/svg+xml</dc:format>
        <dc:type
           rdf:resource="http://purl.org/dc/dcmitype/StillImage" />
        <dc:title></dc:title>
      </cc:Work>
    </rdf:RDF>
  </metadata>
  <g
     inkscape:label="Layer 1"
     inkscape:groupmode="layer"
     id="layer1"
     transform="translate(0,-278.47915)">
    <path
       d="m 17.236963,288.00503 c 0,5.45099 -2.48695,7.68121 -7.9372604,7.68121 -5.45079,0 -7.93774,-2.23022 -7.93774,-7.68121 0,-5.45069 2.48695,-8.19379 7.93774,-8.19379 5.4503104,0 7.9372604,2.7431 7.9372604,8.19379"
       style="fill:#002f64;fill-opacity:1;fill-rule:nonzero;stroke:none;stroke-width:0.15646173"
       id="path4753"
       inkscape:connector-curvature="0" />
    <path
       d="m 9.2994626,282.61577 c -1.39407,0 -1.56868,0.006 -2.11629,0.0308 -0.54652,0.025 -0.91952,0.11171 -1.2459,0.23892 -0.33764,0.13112 -0.62412,0.30651 -0.9092,0.59174 -0.28538,0.28539 -0.46093,0.57172 -0.59204,0.90921 -0.12705,0.32653 -0.21373,0.6997 -0.23845,1.24591 -0.0252,0.54761 -0.0313,0.72238 -0.0313,2.11662 0,1.39377 0.006,1.56869 0.0313,2.11615 0.0247,0.54637 0.1114,0.91954 0.23845,1.24592 0.13111,0.33764 0.30666,0.62381 0.59204,0.9092 0.28508,0.28554 0.57156,0.46094 0.9092,0.59221 0.32638,0.12674 0.69938,0.21357 1.2459,0.23845 0.54761,0.0249 0.72222,0.0308 2.11629,0.0308 1.3940704,0 1.5686804,-0.006 2.1162904,-0.0308 0.54652,-0.0249 0.91921,-0.11171 1.2459,-0.23845 0.33764,-0.13127 0.62381,-0.30667 0.9092,-0.59221 0.28538,-0.28539 0.46093,-0.57156 0.59204,-0.9092 0.12705,-0.32638 0.21373,-0.69955 0.23845,-1.24592 0.0252,-0.54746 0.0313,-0.72238 0.0313,-2.11615 0,-1.39424 -0.006,-1.56901 -0.0313,-2.11662 -0.0247,-0.54621 -0.1114,-0.91938 -0.23845,-1.24591 -0.13111,-0.33749 -0.30666,-0.62382 -0.59204,-0.90921 -0.28539,-0.28523 -0.57156,-0.46062 -0.9092,-0.59174 -0.32669,-0.12721 -0.69938,-0.21389 -1.2459,-0.23892 -0.54761,-0.0249 -0.72222,-0.0308 -2.1162904,-0.0308 m 0,0.92485 c 1.3706004,0 1.5328504,0.005 2.0742004,0.0302 0.50036,0.0225 0.77214,0.10624 0.95316,0.17649 0.23939,0.0931 0.4104,0.20434 0.59002,0.38412 0.17977,0.17946 0.29086,0.35047 0.38411,0.59017 0.0702,0.18072 0.1538,0.45265 0.17664,0.95302 0.0247,0.54136 0.03,0.70361 0.03,2.07437 0,1.3703 -0.005,1.53271 -0.03,2.07391 -0.0228,0.50053 -0.10639,0.7723 -0.17664,0.95318 -0.0933,0.23969 -0.20434,0.41055 -0.38411,0.59017 -0.17962,0.17962 -0.35063,0.29087 -0.59002,0.38396 -0.18102,0.0704 -0.4528,0.15396 -0.95316,0.1768 -0.5412,0.0246 -0.7036,0.0299 -2.0742004,0.0299 -1.37075,0 -1.533,-0.005 -2.0742,-0.0299 -0.50036,-0.0228 -0.77214,-0.10639 -0.95316,-0.1768 -0.23954,-0.0931 -0.4104,-0.20434 -0.59002,-0.38396 -0.17977,-0.17962 -0.29086,-0.35048 -0.38411,-0.59017 -0.0702,-0.18088 -0.1538,-0.45265 -0.17664,-0.95318 -0.0247,-0.5412 -0.03,-0.70361 -0.03,-2.07391 0,-1.37076 0.005,-1.53301 0.03,-2.07437 0.0228,-0.50037 0.10639,-0.7723 0.17664,-0.95302 0.0933,-0.2397 0.20434,-0.41071 0.38411,-0.59017 0.17962,-0.17978 0.35048,-0.29103 0.59002,-0.38412 0.18102,-0.0702 0.4528,-0.15396 0.95316,-0.17649 0.54135,-0.0249 0.70345,-0.0302 2.0742,-0.0302"
       style="fill:#ffffff;fill-opacity:1;fill-rule:nonzero;stroke:none;stroke-width:0.15646173"
       id="path4757"
       inkscape:connector-curvature="0" />
    <path
       d="m 9.2994626,289.45978 c -0.94487,0 -1.71121,-0.76604 -1.71121,-1.71107 0,-0.94504 0.76634,-1.71092 1.71121,-1.71092 0.9448704,0 1.7109004,0.76588 1.7109004,1.71092 0,0.94503 -0.76603,1.71107 -1.7109004,1.71107 m 0,-4.34684 c -1.45571,0 -2.6359,1.18004 -2.6359,2.63577 0,1.45588 1.18019,2.63592 2.6359,2.63592 1.4557104,0 2.6359004,-1.18004 2.6359004,-2.63592 0,-1.45573 -1.18019,-2.63577 -2.6359004,-2.63577"
       style="fill:#ffffff;fill-opacity:1;fill-rule:nonzero;stroke:none;stroke-width:0.15646173"
       id="path4761"
       inkscape:connector-curvature="0" />
    <path
       d="m 12.655283,285.00886 c 0,0.34015 -0.27568,0.61599 -0.61599,0.61599 -0.33998,0 -0.61582,-0.27584 -0.61582,-0.61599 0,-0.34015 0.27584,-0.61615 0.61582,-0.61615 0.34031,0 0.61599,0.276 0.61599,0.61615"
       style="fill:#ffffff;fill-opacity:1;fill-rule:nonzero;stroke:none;stroke-width:0.15646173"
       id="path4765"
       inkscape:connector-curvature="0" />
  </g>
</svg>
