<?xml version="1.0" encoding="UTF-8" standalone="no"?>
<!-- Created with Inkscape (http://www.inkscape.org/) -->

<svg
   xmlns:dc="http://purl.org/dc/elements/1.1/"
   xmlns:cc="http://creativecommons.org/ns#"
   xmlns:rdf="http://www.w3.org/1999/02/22-rdf-syntax-ns#"
   xmlns:svg="http://www.w3.org/2000/svg"
   xmlns="http://www.w3.org/2000/svg"
   xmlns:sodipodi="http://sodipodi.sourceforge.net/DTD/sodipodi-0.dtd"
   xmlns:inkscape="http://www.inkscape.org/namespaces/inkscape"
   width="70"
   height="70"
   viewBox="0 0 18.520833 18.520834"
   version="1.1"
   id="svg7970"
   inkscape:version="0.92.1 r15371"
   sodipodi:docname="mail1.svg">
  <defs
     id="defs7964" />
  <sodipodi:namedview
     id="base"
     pagecolor="#ffffff"
     bordercolor="#666666"
     borderopacity="1.0"
     inkscape:pageopacity="0.0"
     inkscape:pageshadow="2"
     inkscape:zoom="7.9195959"
     inkscape:cx="33.016556"
     inkscape:cy="37.866654"
     inkscape:document-units="mm"
     inkscape:current-layer="g10"
     showgrid="false"
     inkscape:pagecheckerboard="true"
     units="px"
     inkscape:window-width="1024"
     inkscape:window-height="705"
     inkscape:window-x="-8"
     inkscape:window-y="-8"
     inkscape:window-maximized="1" />
  <metadata
     id="metadata7967">
    <rdf:RDF>
      <cc:Work
         rdf:about="">
        <dc:format>image/svg+xml</dc:format>
        <dc:type
           rdf:resource="http://purl.org/dc/dcmitype/StillImage" />
        <dc:title></dc:title>
      </cc:Work>
    </rdf:RDF>
  </metadata>
  <g
     inkscape:label="Layer 1"
     inkscape:groupmode="layer"
     id="layer1"
     transform="translate(0,-278.47915)">
    <g
       id="g10"
       transform="matrix(0.1485,0,0,0.1485,-7.634048,265.79705)">
      <g
         id="g6"
         transform="matrix(0.1893059,0,0,0.1893059,66.10768,94.207811)">
        <g
           id="g4">
          <path
             d="m 511.646,126.634 c -0.021,-14.449 -11.782,-26.189 -26.227,-26.189 -0.012,0 -0.024,0 -0.034,0 L 26.19,101.076 c -7.005,0.009 -13.588,2.746 -18.535,7.706 -4.946,4.961 -7.664,11.552 -7.655,18.555 l 0.355,258.029 c 0.009,7.005 2.746,13.588 7.706,18.535 4.951,4.938 11.526,7.655 18.519,7.655 0.012,0 0.025,0 0.035,0 l 459.194,-0.631 c 14.458,-0.02 26.207,-11.799 26.19,-26.261 z M 456.611,126.71 256.02,266.154 55.04,127.262 Z m -115.765,165.761 118.971,92.265 -407.972,0.56 119.696,-92.825 c 5.722,-4.439 6.764,-12.675 2.326,-18.399 -4.439,-5.722 -12.675,-6.764 -18.399,-2.326 L 26.561,371.715 26.241,139.24 248.585,292.897 c 2.244,1.551 4.849,2.325 7.455,2.325 2.617,0 5.236,-0.783 7.485,-2.346 l 221.912,-154.264 0.336,233.066 -128.856,-99.931 c -5.719,-4.437 -13.959,-3.396 -18.397,2.326 -4.439,5.722 -3.398,13.96 2.326,18.398 z"
             id="path2"
             inkscape:connector-curvature="0"
             style="fill:#002f64;fill-opacity:1" />
        </g>
      </g>
      <path
         style="opacity:1;fill:#002f64;fill-opacity:1;stroke:none;stroke-width:0;stroke-miterlimit:4;stroke-dasharray:none;stroke-opacity:1"
         d="M 10.040498,48.389774 C 9.316497,48.060102 8.5702335,47.148615 8.4420463,46.437426 8.3850344,46.12112 8.3617477,39.473933 8.390298,31.665897 L 8.442208,17.469468 8.840477,16.911127 C 9.7111859,15.690461 7.7649242,15.77304 35.66361,15.77304 h 25.203142 l 0.752013,0.701306 0.752014,0.701307 0.135898,7.557622 c 0.07475,4.156692 0.114924,10.771908 0.08929,14.700479 -0.04425,6.781006 -0.0647,7.172882 -0.403755,7.735548 -0.196429,0.325981 -0.638393,0.767218 -0.982143,0.980529 l -0.625,0.387837 -25,0.05004 c -21.02862,0.04209 -25.086507,0.01065 -25.544567,-0.197932 z m 47.056201,-2.572091 c -0.0034,-0.07366 -2.91637,-2.385032 -6.473214,-5.136381 -6.263211,-4.844819 -6.468718,-5.023155 -6.521808,-5.659469 -0.03972,-0.47612 0.04632,-0.758152 0.3125,-1.024334 0.799013,-0.799013 0.971893,-0.695206 8.260836,4.960264 3.776491,2.93017 6.960557,5.385805 7.0757,5.456968 0.159322,0.09847 0.209352,-2.839009 0.209352,-12.291867 0,-6.907314 -0.06884,-12.421253 -0.155079,-12.421253 -0.08529,0 -5.449132,3.680314 -11.919643,8.178475 -6.47051,4.498161 -11.905887,8.232515 -12.078614,8.298563 -0.172728,0.06605 -0.494157,0.05102 -0.714286,-0.03339 -0.22013,-0.08441 -5.703807,-3.820067 -12.18595,-8.301455 l -11.785714,-8.147977 -0.04694,6.150515 c -0.02582,3.382784 -0.02582,8.963402 0,12.401375 l 0.04694,6.250861 5.982143,-4.644398 c 8.161661,-6.336529 8.007385,-6.223998 8.53297,-6.223998 1.04263,0 1.657584,1.324943 0.975959,2.102739 -0.171875,0.196127 -3.044643,2.464054 -6.383929,5.039841 -3.339286,2.575788 -6.189094,4.794759 -6.332908,4.931048 -0.223099,0.211427 2.928804,0.2478 21.473213,0.2478 11.954083,0 21.731895,-0.06027 21.728472,-0.133927 z M 46.194086,25.862326 c 5.798743,-4.026786 10.545086,-7.381697 10.547431,-7.455358 0.0047,-0.148368 -11.253384,-0.138733 -30.212906,0.02586 l -12.44931,0.108073 10.658541,7.367756 c 5.862198,4.052267 10.715812,7.346909 10.785809,7.321429 0.07,-0.02548 4.871694,-3.340971 10.670435,-7.367756 z"
         id="path4498"
         inkscape:connector-curvature="0"
         transform="matrix(1.7817059,0,0,1.7817059,51.407731,85.401347)" />
    </g>
  </g>
</svg>
