<?xml version="1.0" encoding="UTF-8" standalone="no"?>
<!-- Created with Inkscape (http://www.inkscape.org/) -->

<svg
   xmlns:dc="http://purl.org/dc/elements/1.1/"
   xmlns:cc="http://creativecommons.org/ns#"
   xmlns:rdf="http://www.w3.org/1999/02/22-rdf-syntax-ns#"
   xmlns:svg="http://www.w3.org/2000/svg"
   xmlns="http://www.w3.org/2000/svg"
   xmlns:sodipodi="http://sodipodi.sourceforge.net/DTD/sodipodi-0.dtd"
   xmlns:inkscape="http://www.inkscape.org/namespaces/inkscape"
   width="70"
   height="70"
   viewBox="0 0 18.520833 18.520834"
   version="1.1"
   id="svg7970"
   inkscape:version="0.92.1 r15371"
   sodipodi:docname="mail.svg">
  <defs
     id="defs7964" />
  <sodipodi:namedview
     id="base"
     pagecolor="#ffffff"
     bordercolor="#666666"
     borderopacity="1.0"
     inkscape:pageopacity="0.0"
     inkscape:pageshadow="2"
     inkscape:zoom="5.6"
     inkscape:cx="29.890256"
     inkscape:cy="22.779778"
     inkscape:document-units="mm"
     inkscape:current-layer="g10"
     showgrid="false"
     inkscape:pagecheckerboard="true"
     units="px"
     inkscape:window-width="1024"
     inkscape:window-height="705"
     inkscape:window-x="-8"
     inkscape:window-y="-8"
     inkscape:window-maximized="1" />
  <metadata
     id="metadata7967">
    <rdf:RDF>
      <cc:Work
         rdf:about="">
        <dc:format>image/svg+xml</dc:format>
        <dc:type
           rdf:resource="http://purl.org/dc/dcmitype/StillImage" />
        <dc:title></dc:title>
      </cc:Work>
    </rdf:RDF>
  </metadata>
  <g
     inkscape:label="Layer 1"
     inkscape:groupmode="layer"
     id="layer1"
     transform="translate(0,-278.47915)">
    <g
       id="g10"
       transform="matrix(0.1485,0,0,0.1485,-7.634048,265.79705)">
      <path
         d="m 167.78,174.76 c 0,2.9298 -2.3749,5.3044 -5.3047,5.3044 h -94.755 c -2.9298,0 -5.3044,-2.3746 -5.3044,-5.3044 v -59.409 c 0,-2.9295 2.3745,-5.304 5.3044,-5.304 h 50.72979 44.02521 c 2.9298,0 5.3047,2.3746 5.3047,5.304 z"
         id="path4"
         inkscape:connector-curvature="0"
         style="fill:#2a619e;fill-opacity:1"
         sodipodi:nodetypes="sssssscsss" />
      <path
         d="m 67.716,180.06 h 94.755 c 2.9295,0 5.3047,-2.3746 5.3047,-5.3044 v -1.3727 l -50.117,-36.792 c -1.4118,-1.0354 -3.7218,-1.0389 -5.1364,-0.007 l -50.111,36.563 v 1.6094 c 0,2.9298 2.3745,5.3044 5.3044,5.3044"
         id="path6"
         inkscape:connector-curvature="0"
         style="fill:#00408c;fill-opacity:1" />
      <path
         d="M 162.47,110.04 H 67.715 c -2.9298,0 -5.3044,2.3746 -5.3044,5.3044 v 1.3723 l 50.117,38.384 c 1.4108,1.0358 3.7225,1.04 5.1364,0.008 l 50.111,-38.155 v -1.6097 c 0,-2.9298 -2.3749,-5.3044 -5.3047,-5.3044"
         id="path8"
         inkscape:connector-curvature="0"
         style="fill:#578dcd;fill-opacity:1" />
    </g>
  </g>
</svg>
