<?xml version="1.0" encoding="UTF-8" standalone="no"?>
<!-- Created with Inkscape (http://www.inkscape.org/) -->

<svg
   xmlns:dc="http://purl.org/dc/elements/1.1/"
   xmlns:cc="http://creativecommons.org/ns#"
   xmlns:rdf="http://www.w3.org/1999/02/22-rdf-syntax-ns#"
   xmlns:svg="http://www.w3.org/2000/svg"
   xmlns="http://www.w3.org/2000/svg"
   xmlns:sodipodi="http://sodipodi.sourceforge.net/DTD/sodipodi-0.dtd"
   xmlns:inkscape="http://www.inkscape.org/namespaces/inkscape"
   width="70"
   height="70"
   viewBox="0 0 18.520833 18.520834"
   version="1.1"
   id="svg7393"
   inkscape:version="0.92.1 r15371"
   sodipodi:docname="t.svg">
  <defs
     id="defs7387" />
  <sodipodi:namedview
     id="base"
     pagecolor="#ffffff"
     bordercolor="#666666"
     borderopacity="1.0"
     inkscape:pageopacity="0.0"
     inkscape:pageshadow="2"
     inkscape:zoom="3.959798"
     inkscape:cx="46.593741"
     inkscape:cy="16.358218"
     inkscape:document-units="mm"
     inkscape:current-layer="layer1"
     showgrid="false"
     inkscape:pagecheckerboard="true"
     units="px"
     inkscape:window-width="1024"
     inkscape:window-height="705"
     inkscape:window-x="-8"
     inkscape:window-y="-8"
     inkscape:window-maximized="1" />
  <metadata
     id="metadata7390">
    <rdf:RDF>
      <cc:Work
         rdf:about="">
        <dc:format>image/svg+xml</dc:format>
        <dc:type
           rdf:resource="http://purl.org/dc/dcmitype/StillImage" />
        <dc:title></dc:title>
      </cc:Work>
    </rdf:RDF>
  </metadata>
  <g
     inkscape:label="Layer 1"
     inkscape:groupmode="layer"
     id="layer1"
     transform="translate(0,-278.47915)">
    <path
       d="m 17.21095,288.1164 c 0,5.45109 -2.48695,7.68129 -7.9372698,7.68129 -5.45078,0 -7.93773,-2.2302 -7.93773,-7.68129 0,-5.45048 2.48695,-8.19371 7.93773,-8.19371 5.4503198,0 7.9372698,2.74323 7.9372698,8.19371"
       style="fill:#002f64;fill-opacity:1;fill-rule:nonzero;stroke:none;stroke-width:0.15646097;stroke-opacity:1"
       id="path4709"
       inkscape:connector-curvature="0" />
    <path
       d="m 13.13563,284.48877 -1.4177,7.14807 c 0,0 -0.19823,0.49568 -0.7435,0.25754 l -3.2715998,-2.50822 -1.18957,-0.57515 -2.00254,-0.6742 c 0,0 -0.30745,-0.10874 -0.33702,-0.34671 -0.03,-0.23814 0.34672,-0.36706 0.34672,-0.36706 l 7.9608898,-3.12281 c 0,0 0.65432,-0.28726 0.65432,0.18854"
       style="fill:#ffffff;fill-opacity:1;fill-rule:nonzero;stroke:none;stroke-width:0.15646097"
       id="path4713"
       inkscape:connector-curvature="0" />
    <path
       d="m 7.4513802,291.55641 c 0,0 -0.0953,-0.009 -0.21451,-0.38568 -0.11891,-0.37675 -0.72363,-2.35943 -0.72363,-2.35943 l 1.19959,0.51523 z"
       style="fill:#ffffff;fill-opacity:1;fill-rule:nonzero;stroke:none;stroke-width:0.15646097"
       id="path4717"
       inkscape:connector-curvature="0" />
    <path
       d="m 8.9573202,290.34781 -1.29409,1.17987 c 0,0 -0.10123,0.0767 -0.21185,0.0288 l 0.24784,-2.19171"
       style="fill:#ffffff;fill-opacity:1;fill-rule:nonzero;stroke:none;stroke-width:0.15646097"
       id="path4721"
       inkscape:connector-curvature="0" />
    <path
       d="m 11.5892,285.75787 c 0.01,-0.16866 -0.26786,0 -0.26786,0 l -4.5347098,2.87982 c 0.22217,0.72676 0.47674,1.55945 0.72786,2.37993 l 0.19839,-1.69103 c 0,0 3.6284798,-3.26159 3.7771198,-3.40036 0.1488,-0.13879 0.0992,-0.16836 0.0992,-0.16836"
       style="fill:#002f64;fill-opacity:1;fill-rule:nonzero;stroke:none;stroke-width:0.15646097"
       id="path4725"
       inkscape:connector-curvature="0" />
  </g>
</svg>
